<svg width="36" height="36" viewBox="0 0 36 36" fill="none" xmlns="http://www.w3.org/2000/svg">
<rect width="36" height="36" rx="10" fill="#038DF3"/>
<path fill-rule="evenodd" clip-rule="evenodd" d="M19.8041 11.25H15.3078C15.1586 11.25 15.0156 11.3093 14.9101 11.4148C14.8046 11.5202 14.7453 11.6633 14.7453 11.8125C14.7453 11.9617 14.8046 12.1048 14.9101 12.2102C15.0156 12.3157 15.1586 12.375 15.3078 12.375H15.5028V16.1902C15.5027 17.2812 15.1745 18.3468 14.5608 19.2487L12.2411 22.6597C12.1062 22.8579 12.0248 23.0876 12.0048 23.3265C11.9849 23.5653 12.0269 23.8053 12.127 24.0232C12.227 24.241 12.3817 24.4293 12.5759 24.5698C12.7701 24.7103 12.9974 24.7982 13.2356 24.825L13.3008 24.8325L13.3136 24.834C16.3833 25.179 19.4823 25.179 22.5521 24.834L22.5656 24.8325L22.6301 24.825C22.8683 24.7982 23.0955 24.7103 23.2898 24.5698C23.484 24.4293 23.6386 24.241 23.7387 24.0232C23.8387 23.8053 23.8808 23.5653 23.8608 23.3265C23.8408 23.0876 23.7594 22.8579 23.6246 22.6597L21.3048 19.2487C20.6911 18.3468 20.3629 17.2812 20.3628 16.1902V12.375H20.5578C20.707 12.375 20.8501 12.3157 20.9556 12.2102C21.0611 12.1048 21.1203 11.9617 21.1203 11.8125C21.1203 11.6633 21.0611 11.5202 20.9556 11.4148C20.8501 11.3093 20.707 11.25 20.5578 11.25H19.8041ZM16.3046 18.225H19.5611C19.3471 17.568 19.2383 16.8812 19.2386 16.1902V12.375H16.6278V16.1902C16.6279 16.8813 16.5188 17.568 16.3046 18.225ZM16.4328 21.5625C16.2339 21.5625 16.0431 21.6415 15.9025 21.7822C15.7618 21.9228 15.6828 22.1136 15.6828 22.3125C15.6828 22.5114 15.7618 22.7022 15.9025 22.8428C16.0431 22.9835 16.2339 23.0625 16.4328 23.0625C16.6317 23.0625 16.8225 22.9835 16.9632 22.8428C17.1038 22.7022 17.1828 22.5114 17.1828 22.3125C17.1828 22.1136 17.1038 21.9228 16.9632 21.7822C16.8225 21.6415 16.6317 21.5625 16.4328 21.5625ZM17.9328 20.8125C17.9328 20.6136 18.0118 20.4228 18.1525 20.2822C18.2931 20.1415 18.4839 20.0625 18.6828 20.0625C18.8817 20.0625 19.0725 20.1415 19.2132 20.2822C19.3538 20.4228 19.4328 20.6136 19.4328 20.8125C19.4328 21.0114 19.3538 21.2022 19.2132 21.3428C19.0725 21.4835 18.8817 21.5625 18.6828 21.5625C18.4839 21.5625 18.2931 21.4835 18.1525 21.3428C18.0118 21.2022 17.9328 21.0114 17.9328 20.8125Z" fill="white"/>
</svg>
